# xmcd
#
# Track frame offsets: 
#        150
#        21265
#        42480
#        62422
#        87252
#        117232
#        147322
#        166410
#        189325
#        216100
#        245047
#        259935
#        277080
#
# Disc length: 3940 seconds
#
# Revision: 3
# Processed by: cddbd v1.5.2PL0 Copyright (c) Steve Scherf et al.
# Submitted via: ExactAudioCopy v0.99pb5
#
DISCID=c20f620d
DTITLE=Gene Harris - Big Band Soul [1989] - Disc 1 - Live at Town Hall
DTITLE=, N.Y.C.
DYEAR=2002
DGENRE=Jazz
TTITLE0=The Surrey with the Fringe on Top
TTITLE1=Creme de Menthe
TTITLE2=When It's Sleepy Time Down South
TTITLE3=Love Is Here to Stay
TTITLE4=I'm Just a Lucky So and So
TTITLE5=Serious Grease
TTITLE6=Like a Lover
TTITLE7=Old Man River
TTITLE8=Do You Know What It Means to Miss New Orleans
TTITLE9=Porgy and Bess Medley - Strawberry Woman - I Loves You Porgy - I
TTITLE9=t Ain't Necessarily So
TTITLE10=You're My Everything
TTITLE11=There Is No Greater Love
TTITLE12=Things Ain't What They Used to Be
EXTD=Gene Harris Superband Disc 1, Concord Jazz CCD2-2143-2, 2002\nLiv
EXTD=e at Town Hall, N.Y.C.: CCD-4337, 1989
EXTT0=
EXTT1=
EXTT2=
EXTT3=
EXTT4=
EXTT5=
EXTT6=
EXTT7=
EXTT8=
EXTT9=
EXTT10=
EXTT11=
EXTT12=
PLAYORDER=
